{
    "asset" : {
        "generator" : "Khronos glTF Blender I/O v1.7.33",
        "version" : "2.0"
    },
    "scene" : 0,
    "scenes" : [
        {
            "name" : "Scene",
            "nodes" : [
                0,
                1,
                2,
                3,
                4,
                5
            ]
        }
    ],
    "nodes" : [
        {
            "mesh" : 0,
            "name" : "reception",
            "translation" : [
                0.15445327758789062,
                1.9947032928466797,
                0.20781409740447998
            ]
        },
        {
            "mesh" : 1,
            "name" : "Main_room",
            "translation" : [
                -1.1401176452636719,
                1.2788524627685547,
                1.131906509399414
            ]
        },
        {
            "mesh" : 2,
            "name" : "2x4x1",
            "translation" : [
                2.468280792236328,
                1.2862730026245117,
                -5.8579277992248535
            ]
        },
        {
            "mesh" : 3,
            "name" : "base_16m",
            "translation" : [
                -1.9617996215820312,
                2.5223116874694824,
                -12.019901275634766
            ]
        },
        {
            "mesh" : 4,
            "name" : "base_6m",
            "translation" : [
                -6.959865570068359,
                2.523029327392578,
                -5.581880569458008
            ]
        },
        {
            "mesh" : 5,
            "name" : "base_6m_table",
            "translation" : [
                -6.959865570068359,
                1.723029375076294,
                -6.635308265686035
            ]
        }
    ],
    "materials" : [
        {
            "doubleSided" : true,
            "emissiveFactor" : [
                1,
                1,
                1
            ],
            "emissiveTexture" : {
                "index" : 0
            },
            "name" : "reception_BAKED.001",
            "pbrMetallicRoughness" : {}
        },
        {
            "doubleSided" : true,
            "emissiveFactor" : [
                1,
                1,
                1
            ],
            "emissiveTexture" : {
                "index" : 1
            },
            "name" : "Main_room_BAKED.001",
            "pbrMetallicRoughness" : {}
        },
        {
            "doubleSided" : true,
            "emissiveFactor" : [
                1,
                1,
                1
            ],
            "emissiveTexture" : {
                "index" : 2
            },
            "name" : "2x4x1_BAKED",
            "pbrMetallicRoughness" : {}
        },
        {
            "doubleSided" : true,
            "emissiveFactor" : [
                1,
                1,
                1
            ],
            "emissiveTexture" : {
                "index" : 3
            },
            "name" : "base_16m_BAKED.001",
            "pbrMetallicRoughness" : {}
        },
        {
            "doubleSided" : true,
            "emissiveFactor" : [
                1,
                1,
                1
            ],
            "emissiveTexture" : {
                "index" : 4
            },
            "name" : "base_6m_BAKED.003",
            "pbrMetallicRoughness" : {}
        },
        {
            "doubleSided" : true,
            "emissiveFactor" : [
                1,
                1,
                1
            ],
            "emissiveTexture" : {
                "index" : 5
            },
            "name" : "base_6m_table_BAKED",
            "pbrMetallicRoughness" : {}
        }
    ],
    "meshes" : [
        {
            "name" : "Plane.006",
            "primitives" : [
                {
                    "attributes" : {
                        "POSITION" : 0,
                        "NORMAL" : 1,
                        "TEXCOORD_0" : 2
                    },
                    "indices" : 3,
                    "material" : 0
                }
            ]
        },
        {
            "name" : "Plane.010",
            "primitives" : [
                {
                    "attributes" : {
                        "POSITION" : 4,
                        "NORMAL" : 5,
                        "TEXCOORD_0" : 6,
                        "TEXCOORD_1" : 7
                    },
                    "indices" : 8,
                    "material" : 1
                }
            ]
        },
        {
            "name" : "Cube.010",
            "primitives" : [
                {
                    "attributes" : {
                        "POSITION" : 9,
                        "NORMAL" : 10,
                        "TEXCOORD_0" : 11
                    },
                    "indices" : 12,
                    "material" : 2
                }
            ]
        },
        {
            "name" : "Cube.004",
            "primitives" : [
                {
                    "attributes" : {
                        "POSITION" : 13,
                        "NORMAL" : 14,
                        "TEXCOORD_0" : 15
                    },
                    "indices" : 16,
                    "material" : 3
                }
            ]
        },
        {
            "name" : "Cube.006",
            "primitives" : [
                {
                    "attributes" : {
                        "POSITION" : 17,
                        "NORMAL" : 18,
                        "TEXCOORD_0" : 19
                    },
                    "indices" : 20,
                    "material" : 4
                }
            ]
        },
        {
            "name" : "Cube.003",
            "primitives" : [
                {
                    "attributes" : {
                        "POSITION" : 21,
                        "NORMAL" : 22,
                        "TEXCOORD_0" : 23
                    },
                    "indices" : 24,
                    "material" : 5
                }
            ]
        }
    ],
    "textures" : [
        {
            "sampler" : 0,
            "source" : 0
        },
        {
            "sampler" : 0,
            "source" : 1
        },
        {
            "sampler" : 0,
            "source" : 2
        },
        {
            "sampler" : 0,
            "source" : 3
        },
        {
            "sampler" : 0,
            "source" : 4
        },
        {
            "sampler" : 0,
            "source" : 5
        }
    ],
    "images" : [
        {
            "bufferView" : 4,
            "mimeType" : "image/jpeg",
            "name" : "reception_c"
        },
        {
            "bufferView" : 10,
            "mimeType" : "image/jpeg",
            "name" : "Main_room_c_001"
        },
        {
            "bufferView" : 15,
            "mimeType" : "image/jpeg",
            "name" : "2x4x1_c"
        },
        {
            "bufferView" : 20,
            "mimeType" : "image/jpeg",
            "name" : "base_16m_c"
        },
        {
            "bufferView" : 25,
            "mimeType" : "image/jpeg",
            "name" : "base_6m_c"
        },
        {
            "bufferView" : 30,
            "mimeType" : "image/jpeg",
            "name" : "base_6m_table_c"
        }
    ],
    "accessors" : [
        {
            "bufferView" : 0,
            "componentType" : 5126,
            "count" : 310,
            "max" : [
                21.009292602539062,
                1.4790585041046143,
                15.30179214477539
            ],
            "min" : [
                -14.611369132995605,
                -0.7509415149688721,
                -6.087540626525879
            ],
            "type" : "VEC3"
        },
        {
            "bufferView" : 1,
            "componentType" : 5126,
            "count" : 310,
            "type" : "VEC3"
        },
        {
            "bufferView" : 2,
            "componentType" : 5126,
            "count" : 310,
            "type" : "VEC2"
        },
        {
            "bufferView" : 3,
            "componentType" : 5123,
            "count" : 516,
            "type" : "SCALAR"
        },
        {
            "bufferView" : 5,
            "componentType" : 5126,
            "count" : 2725,
            "max" : [
                36.504032135009766,
                4.350000381469727,
                16.54460906982422
            ],
            "min" : [
                -36.504032135009766,
                -1,
                -16.54460906982422
            ],
            "type" : "VEC3"
        },
        {
            "bufferView" : 6,
            "componentType" : 5126,
            "count" : 2725,
            "type" : "VEC3"
        },
        {
            "bufferView" : 7,
            "componentType" : 5126,
            "count" : 2725,
            "type" : "VEC2"
        },
        {
            "bufferView" : 8,
            "componentType" : 5126,
            "count" : 2725,
            "type" : "VEC2"
        },
        {
            "bufferView" : 9,
            "componentType" : 5123,
            "count" : 4602,
            "type" : "SCALAR"
        },
        {
            "bufferView" : 11,
            "componentType" : 5126,
            "count" : 432,
            "max" : [
                2,
                2.5074639320373535,
                0.5115091800689697
            ],
            "min" : [
                -2,
                -0.02481675148010254,
                -0.5372810363769531
            ],
            "type" : "VEC3"
        },
        {
            "bufferView" : 12,
            "componentType" : 5126,
            "count" : 432,
            "type" : "VEC3"
        },
        {
            "bufferView" : 13,
            "componentType" : 5126,
            "count" : 432,
            "type" : "VEC2"
        },
        {
            "bufferView" : 14,
            "componentType" : 5123,
            "count" : 1404,
            "type" : "SCALAR"
        },
        {
            "bufferView" : 16,
            "componentType" : 5126,
            "count" : 704,
            "max" : [
                8,
                1.269761323928833,
                2.506291151046753
            ],
            "min" : [
                -8,
                -1.2500001192092896,
                -0.5
            ],
            "type" : "VEC3"
        },
        {
            "bufferView" : 17,
            "componentType" : 5126,
            "count" : 704,
            "type" : "VEC3"
        },
        {
            "bufferView" : 18,
            "componentType" : 5126,
            "count" : 704,
            "type" : "VEC2"
        },
        {
            "bufferView" : 19,
            "componentType" : 5123,
            "count" : 2316,
            "type" : "SCALAR"
        },
        {
            "bufferView" : 21,
            "componentType" : 5126,
            "count" : 60,
            "max" : [
                3,
                1.2500001192092896,
                0.5
            ],
            "min" : [
                -3,
                -1.25,
                -0.5
            ],
            "type" : "VEC3"
        },
        {
            "bufferView" : 22,
            "componentType" : 5126,
            "count" : 60,
            "type" : "VEC3"
        },
        {
            "bufferView" : 23,
            "componentType" : 5126,
            "count" : 60,
            "type" : "VEC2"
        },
        {
            "bufferView" : 24,
            "componentType" : 5123,
            "count" : 96,
            "type" : "SCALAR"
        },
        {
            "bufferView" : 26,
            "componentType" : 5126,
            "count" : 480,
            "max" : [
                2.7899997234344482,
                1.5145399570465088,
                2.3181047439575195
            ],
            "min" : [
                -2.7899999618530273,
                -0.44999998807907104,
                -0.25
            ],
            "type" : "VEC3"
        },
        {
            "bufferView" : 27,
            "componentType" : 5126,
            "count" : 480,
            "type" : "VEC3"
        },
        {
            "bufferView" : 28,
            "componentType" : 5126,
            "count" : 480,
            "type" : "VEC2"
        },
        {
            "bufferView" : 29,
            "componentType" : 5123,
            "count" : 720,
            "type" : "SCALAR"
        }
    ],
    "bufferViews" : [
        {
            "buffer" : 0,
            "byteLength" : 3720,
            "byteOffset" : 0
        },
        {
            "buffer" : 0,
            "byteLength" : 3720,
            "byteOffset" : 3720
        },
        {
            "buffer" : 0,
            "byteLength" : 2480,
            "byteOffset" : 7440
        },
        {
            "buffer" : 0,
            "byteLength" : 1032,
            "byteOffset" : 9920
        },
        {
            "buffer" : 0,
            "byteLength" : 433224,
            "byteOffset" : 10952
        },
        {
            "buffer" : 0,
            "byteLength" : 32700,
            "byteOffset" : 444176
        },
        {
            "buffer" : 0,
            "byteLength" : 32700,
            "byteOffset" : 476876
        },
        {
            "buffer" : 0,
            "byteLength" : 21800,
            "byteOffset" : 509576
        },
        {
            "buffer" : 0,
            "byteLength" : 21800,
            "byteOffset" : 531376
        },
        {
            "buffer" : 0,
            "byteLength" : 9204,
            "byteOffset" : 553176
        },
        {
            "buffer" : 0,
            "byteLength" : 320002,
            "byteOffset" : 562380
        },
        {
            "buffer" : 0,
            "byteLength" : 5184,
            "byteOffset" : 882384
        },
        {
            "buffer" : 0,
            "byteLength" : 5184,
            "byteOffset" : 887568
        },
        {
            "buffer" : 0,
            "byteLength" : 3456,
            "byteOffset" : 892752
        },
        {
            "buffer" : 0,
            "byteLength" : 2808,
            "byteOffset" : 896208
        },
        {
            "buffer" : 0,
            "byteLength" : 288172,
            "byteOffset" : 899016
        },
        {
            "buffer" : 0,
            "byteLength" : 8448,
            "byteOffset" : 1187188
        },
        {
            "buffer" : 0,
            "byteLength" : 8448,
            "byteOffset" : 1195636
        },
        {
            "buffer" : 0,
            "byteLength" : 5632,
            "byteOffset" : 1204084
        },
        {
            "buffer" : 0,
            "byteLength" : 4632,
            "byteOffset" : 1209716
        },
        {
            "buffer" : 0,
            "byteLength" : 471144,
            "byteOffset" : 1214348
        },
        {
            "buffer" : 0,
            "byteLength" : 720,
            "byteOffset" : 1685492
        },
        {
            "buffer" : 0,
            "byteLength" : 720,
            "byteOffset" : 1686212
        },
        {
            "buffer" : 0,
            "byteLength" : 480,
            "byteOffset" : 1686932
        },
        {
            "buffer" : 0,
            "byteLength" : 192,
            "byteOffset" : 1687412
        },
        {
            "buffer" : 0,
            "byteLength" : 509999,
            "byteOffset" : 1687604
        },
        {
            "buffer" : 0,
            "byteLength" : 5760,
            "byteOffset" : 2197604
        },
        {
            "buffer" : 0,
            "byteLength" : 5760,
            "byteOffset" : 2203364
        },
        {
            "buffer" : 0,
            "byteLength" : 3840,
            "byteOffset" : 2209124
        },
        {
            "buffer" : 0,
            "byteLength" : 1440,
            "byteOffset" : 2212964
        },
        {
            "buffer" : 0,
            "byteLength" : 280940,
            "byteOffset" : 2214404
        }
    ],
    "samplers" : [
        {
            "magFilter" : 9729,
            "minFilter" : 9987
        }
    ],
    "buffers" : [
        {
            "byteLength" : 2495344,
            "uri" : "data:application/octet-stream;base64,"
        }
    ]
}
